<?xml version="1.0" encoding="UTF-8"?>
<!-- Created with Inkscape (http://www.inkscape.org/) -->
<svg width="462.53" height="462.53" version="1.0" viewBox="0 0 462.53 462.53" xmlns="http://www.w3.org/2000/svg" xmlns:cc="http://creativecommons.org/ns#" xmlns:dc="http://purl.org/dc/elements/1.1/" xmlns:rdf="http://www.w3.org/1999/02/22-rdf-syntax-ns#" xmlns:xlink="http://www.w3.org/1999/xlink">
 <defs>
  <radialGradient id="radialGradient2340" cx="380" cy="389.51" r="148.86" gradientTransform="matrix(-.10557 -.9309 .99363 -.11268 80.114 856.76)" gradientUnits="userSpaceOnUse">
   <stop stop-color="#bedcdc" offset="0"/>
   <stop stop-color="#8e9e9e" stop-opacity=".7415" offset=".5"/>
   <stop stop-color="#404f5c" stop-opacity=".83922" offset="1"/>
  </radialGradient>
  <filter id="filter3340" x="-.043636" y="-.043636" width="1.0873" height="1.0873">
   <feGaussianBlur stdDeviation="3.9590909"/>
  </filter>
 </defs>
 <g transform="translate(-204.62 -220.91)">
  <g transform="translate(-8.0972e-5 .1943)">
   <path d="m467.6 220.91c-2.6656 20.125-19.892 35.675-40.739 35.675-19.803 0-36.352-13.983-40.262-32.62-14.505 3.121-28.5 7.6081-41.861 13.295 7.3304 18.626 0.15549 40.328-17.704 50.635-16.571 9.574-37.085 6.3086-49.913-6.7307-8.9964 8.3633-17.36 17.426-24.946 27.1 15.971 12.406 20.736 35.03 10.34 53.034-9.9183 17.182-30.366 24.524-48.492 18.537-4.3427 13.35-7.5303 27.234-9.4074 41.517 20.825 2.0214 37.107 19.57 37.107 40.917 0 20.114-14.45 36.83-33.531 40.406 1.4216 6.3864 3.0654 12.684 4.998 18.881 3.7318-0.98849 7.5526-1.4439 11.318-1.355 13.894 0.31099 27.289 7.6747 34.742 20.581 10.14 17.56 5.8421 39.518-9.1963 52.09 8.3967 11.051 17.748 21.336 27.944 30.721 7.7414-9.3852 19.126-14.661 30.854-14.927 7.2749-0.1555 14.65 1.6216 21.414 5.52 18.737 10.818 25.734 34.186 16.516 53.379 12.75 5.2868 26.056 9.4629 39.817 12.428 3.9096-18.637 20.459-32.62 40.262-32.62 20.847 0 38.074 15.549 40.739 35.675 12.473-1.6993 24.624-4.3538 36.374-7.9413-6.142-18.193 1.1773-38.807 18.437-48.77 6.142-3.543 12.839-5.309 19.47-5.4867 13.328-0.34431 26.412 5.8421 34.531 17.215 11.862-8.9742 22.835-19.059 32.765-30.088-14.25-12.706-18.137-34.086-8.2189-51.269 7.4526-12.906 20.847-20.27 34.742-20.581 5.5422-0.12217 11.173 0.87743 16.516 3.0877 4.8092-11.884 8.6521-24.268 11.462-37.03-17.882-4.476-31.143-20.658-31.143-39.917 0-20.481 15.005-37.474 34.608-40.606-2.7212-20.925-8.219-40.961-16.105-59.765-19.192 9.1852-42.528 2.2102-53.345-16.527-10.107-17.515-5.8532-39.395 9.0964-51.99-8.9742-9.6628-18.748-18.593-29.233-26.623-12.606 14.85-34.409 19.07-51.879 8.9853-16.427-9.474-23.846-28.589-19.237-46.093-12.517-3.9762-25.501-6.9306-38.84-8.741zm-31.721 148.55c1.4217 0 2.8322 0.0333 4.2316 0.0999 5.6311 0.28876 11.118 1.144 16.382 2.499 1.3217 0.3443 2.6323 0.71083 3.9318 1.1107 2.5768 0.81079 5.098 1.7326 7.5636 2.7767 1.2328 0.52201 2.4435 1.0884 3.643 1.666 0.59976 0.28878 1.2106 0.59977 1.7993 0.89965 0.0889 0.0445 0.16659 0.0999 0.24435 0.14439 0.81078 0.41095 1.6105 0.8441 2.399 1.2884 0.86632 0.48869 1.7215 0.96629 2.5657 1.4883 2.2658 1.3772 4.476 2.8544 6.5974 4.4427 0.78857 0.58865 1.5883 1.2217 2.3546 1.8437 0.47759 0.37762 0.96627 0.74414 1.4328 1.144 0.62198 0.52201 1.2217 1.0773 1.8326 1.6327 1.1551 1.0218 2.2769 2.0658 3.3653 3.1543 0.69973 0.69972 1.3772 1.4217 2.0547 2.1547l0.0333 0.0333c0.31099 0.33319 0.63308 0.6664 0.93296 0.99959 0.78858 0.87743 1.5438 1.766 2.288 2.6767 0.21103 0.25546 0.42205 0.51091 0.63308 0.76636 0.62198 0.76637 1.244 1.566 1.8326 2.3546 0.74415 0.99961 1.455 1.9992 2.1547 3.021 0.97739 1.4439 1.9215 2.91 2.81 4.4094 0.51091 0.85521 0.9885 1.7326 1.455 2.599 1.2773 2.3435 2.4324 4.7204 3.4764 7.186 0.45537 1.0885 0.91075 2.1658 1.3217 3.2654 0.0444 0.11107 0.0556 0.23324 0.0999 0.34431 0.36653 0.9996 0.71083 2.0103 1.044 3.021 0.0444 0.14438 0.0889 0.27766 0.13327 0.42205 0.13329 0.39985 0.23325 0.81079 0.35542 1.2106 0.29988 0.9885 0.59976 1.977 0.86632 2.9877l0.19992 0.833c0.17771 0.71083 0.33321 1.4328 0.4887 2.1547 0.19992 0.87743 0.38873 1.766 0.55534 2.6656 0.0111 0.0444 0.0333 0.0889 0.0333 0.14439 0.0222 0.0778 0.0222 0.1555 0.0333 0.24435 0.18882 1.0329 0.37763 2.0658 0.52202 3.121 0.0111 0.0667 0.0333 0.13329 0.0333 0.21103 0.0333 0.22213 0.0444 0.45537 0.0778 0.68862 0.12217 0.96627 0.25546 1.9326 0.3443 2.9211 0.11107 1.2106 0.21103 2.4435 0.27768 3.6763 0.0667 1.3883 0.0999 2.8211 0.0999 4.2316 0 2.8433-0.13329 5.6311-0.41096 8.3967v0.0333c-0.14438 1.3772-0.31099 2.7434-0.52201 4.0984v0.0333c-0.21103 1.355-0.45538 2.6989-0.73304 4.0317 0 0.0111 0.0111 0.0222 0 0.0333-0.13329 0.6664-0.28878 1.3217-0.44427 1.977-0.1555 0.6664-0.32209 1.3217-0.48869 1.977v0.0333c-0.33321 1.3106-0.71083 2.6101-1.1107 3.8873v0.0333c-0.79969 2.5768-1.7326 5.1091-2.7767 7.5748-1.044 2.4657-2.1991 4.8425-3.4764 7.186 0 0 0.0111 0.0222 0 0.0333-1.2662 2.3213-2.6434 4.576-4.1206 6.764-0.0111 0.0111 0 0.0222 0 0.0333-0.74414 1.0885-1.5105 2.1436-2.2991 3.1987 0 0 0.0111 0.0222 0 0.0333-0.78857 1.044-1.6216 2.077-2.4657 3.0877 0 0.0111 0.0111 0.0222 0 0.0333-3.3542 4.065-7.0972 7.8191-11.173 11.173-4.0762 3.3653-8.4744 6.353-13.15 8.8854-2.3435 1.2773-4.7537 2.4324-7.2194 3.4764-2.4657 1.044-4.9869 1.9659-7.5636 2.7767-1.2995 0.39984-2.6101 0.76636-3.9318 1.1107-5.2646 1.355-10.751 2.2102-16.382 2.499-1.3994 0.0667-2.81 0.0999-4.2316 0.0999s-2.8211-0.0333-4.2317-0.0999c-5.62-0.28877-11.107-1.144-16.382-2.499-1.3217-0.34431-2.6323-0.71083-3.9207-1.1107-2.5879-0.81079-5.098-1.7326-7.5637-2.7767-2.4768-1.044-4.8869-2.1991-7.2194-3.4764-1.1773-0.63309-2.3102-1.3217-3.4431-2.0103-1.1329-0.68861-2.2658-1.4105-3.3653-2.1547-1.0996-0.73304-2.1658-1.4994-3.232-2.288-2.1103-1.5883-4.1539-3.2543-6.1087-5.0313-0.96628-0.88854-1.9104-1.8104-2.8433-2.7434-0.93296-0.93297-1.8437-1.8659-2.7434-2.8433 0-0.0111 0.0111-0.0333 0-0.0333-0.88853-0.97739-1.7548-1.9659-2.599-2.9877-0.84411-1.0218-1.6771-2.0658-2.4657-3.121-0.78857-1.0662-1.5438-2.1325-2.288-3.232-1.4883-2.1991-2.8655-4.4649-4.1317-6.7973-1.2662-2.3435-2.4324-4.7203-3.4764-7.186 0-0.0111 0.0111-0.0333 0-0.0333-0.51091-1.2328-1.0329-2.4657-1.4883-3.7208v-0.0333c-0.46648-1.2662-0.87742-2.5212-1.2884-3.8207-0.38874-1.255-0.73305-2.5212-1.0662-3.8096-0.0333-0.0999-0.0556-0.18881-0.0778-0.27766-0.29988-1.1773-0.57754-2.3879-0.833-3.5764-0.0556-0.29988-0.11106-0.59976-0.16659-0.91075-0.16661-0.84411-0.34431-1.6771-0.4887-2.5323-0.0667-0.42205-0.14439-0.85521-0.21103-1.2773 0-0.0333 0.0111-0.0778 0-0.11106-0.1666-1.1218-0.29988-2.2547-0.41095-3.3986-0.0222-0.19992-0.0556-0.38873-0.0778-0.58866-0.11106-1.1662-0.1777-2.3546-0.23323-3.543-0.0111-0.0888-0.0333-0.1777-0.0444-0.27766-0.0667-1.3994-0.0999-2.81-0.0999-4.2316 0-1.4217 0.0333-2.8322 0.0999-4.2317 0.0778-1.3994 0.1777-2.7878 0.32209-4.165 0-0.0111-0.0111-0.0222 0-0.0333 0.13328-1.3772 0.31099-2.7434 0.51091-4.0984 0.0111-0.0111 0-0.0222 0-0.0333 0.21102-1.355 0.46648-2.6989 0.73304-4.0317v-0.0333c0.27767-1.3328 0.59976-2.6434 0.93297-3.954 0.0111-0.0111 0-0.0222 0-0.0333 0.3443-1.3106 0.72193-2.6101 1.1107-3.8873 0.0111-0.0111 0-0.0222 0-0.0333 0.41095-1.2995 0.82189-2.5545 1.2884-3.8207 0.34431-0.94406 0.73305-1.8881 1.1107-2.81 0.0444-0.11107 0.10001-0.21103 0.14439-0.31099 0.17772-0.45538 0.35542-0.91074 0.55534-1.355 0.29988-0.68862 0.61087-1.3661 0.93296-2.0547 0.22213-0.46648 0.43317-0.92185 0.6553-1.3883 0.4998-1.0107 1.0218-2.0214 1.566-3.021v-0.0333c0.63308-1.1662 1.2884-2.2991 1.977-3.432 0.69972-1.144 1.4106-2.2658 2.1547-3.3653 0.73304-1.0885 1.4994-2.1436 2.288-3.1987 0.0111 0 0-0.0222 0-0.0333 0.78857-1.044 1.6327-2.077 2.4657-3.0877 0-0.0111-0.0111-0.0222 0-0.0333 0.84412-1.0218 1.7104-2.0103 2.599-2.9877 2.6656-2.9322 5.52-5.6644 8.5744-8.1856 4.0762-3.3653 8.4855-6.353 13.161-8.8854 2.3324-1.2773 4.7426-2.4324 7.2194-3.4764 2.4657-1.044 4.9758-1.9659 7.5637-2.7767 1.2884-0.39985 2.599-0.76637 3.9207-1.1107 5.2757-1.355 10.762-2.2102 16.382-2.499 1.4106-0.0667 2.81-0.0999 4.2317-0.0999z" fill="#c0c0c0" stroke-width="1.1107"/>
   <path d="m435.87 280.84c-94.47 0-171.13 76.69-171.13 171.16s76.66 171.13 171.13 171.13 171.15-76.66 171.15-171.13-76.68-171.16-171.15-171.16zm0.03 96.85c1.28 0 2.54 0.03 3.81 0.09 5.06 0.26 10 1.03 14.75 2.25 1.19 0.31 2.37 0.64 3.53 1 2.33 0.73 4.59 1.56 6.81 2.5 3.34 1.41 6.53 3.08 9.6 4.94 2.04 1.24 4.03 2.57 5.94 4 2.86 2.14 5.57 4.48 8.09 7 5.04 5.04 9.35 10.81 12.78 17.12 1.14 2.11 2.19 4.25 3.13 6.47 3.29 7.79 5.3 16.26 5.75 25.13 0.06 1.25 0.09 2.54 0.09 3.81 0 2.56-0.12 5.07-0.38 7.56 0 0.01 0.01 0.02 0 0.03-0.12 1.24-0.28 2.47-0.46 3.69-0.01 0.01 0 0.02 0 0.03-0.19 1.22-0.42 2.43-0.66 3.63v0.03c-0.25 1.2-0.54 2.39-0.84 3.56-0.01 0.01 0 0.02 0 0.03-0.31 1.18-0.65 2.35-1 3.5-0.01 0.01 0 0.02 0 0.03-1.45 4.65-3.35 9.08-5.63 13.29v0.03c-1.14 2.09-2.39 4.12-3.72 6.09 0 0.01 0.01 0.02 0 0.03-0.66 0.98-1.35 1.93-2.06 2.88-0.01 0 0 0.02 0 0.03-0.71 0.94-1.47 1.87-2.22 2.78 0 0.01 0.01 0.02 0 0.03-1.51 1.83-3.11 3.58-4.78 5.25-0.85 0.85-1.71 1.66-2.59 2.47-0.88 0.8-1.77 1.59-2.69 2.34-3.67 3.03-7.64 5.72-11.85 8-2.1 1.15-4.27 2.19-6.5 3.13-2.22 0.94-4.48 1.77-6.81 2.5-1.16 0.36-2.34 0.69-3.53 1-4.75 1.22-9.69 1.99-14.75 2.25-1.27 0.06-2.53 0.09-3.81 0.09s-2.55-0.03-3.81-0.09c-5.07-0.26-10.01-1.03-14.75-2.25-1.19-0.31-2.37-0.64-3.54-1-2.32-0.73-4.59-1.56-6.81-2.5-3.33-1.41-6.53-3.08-9.59-4.94-2.04-1.24-4.03-2.57-5.94-4-3.82-2.86-7.33-6.07-10.53-9.59-0.8-0.88-1.59-1.77-2.34-2.69-3.03-3.67-5.72-7.63-8-11.84-1.15-2.11-2.19-4.25-3.13-6.47v-0.03c-0.47-1.11-0.93-2.22-1.34-3.35-0.01-0.01 0-0.02 0-0.03-0.42-1.14-0.8-2.27-1.16-3.44-1.81-5.82-2.93-11.94-3.25-18.28-0.06-1.26-0.09-2.53-0.09-3.81 0-2.57 0.12-5.09 0.37-7.59 0.13-1.24 0.28-2.47 0.47-3.69v-0.03c0.19-1.22 0.41-2.43 0.66-3.63 0-0.01-0.01-0.02 0-0.03 0.24-1.2 0.54-2.38 0.84-3.56v-0.03c0.3-1.18 0.64-2.35 1-3.5v-0.03c0.36-1.17 0.74-2.3 1.16-3.44 1.25-3.42 2.74-6.71 4.47-9.88 0.57-1.05 1.16-2.07 1.78-3.09 0.62-1.03 1.26-2.04 1.93-3.03 0.67-0.98 1.36-1.93 2.07-2.88 0 0-0.01-0.02 0-0.03 0.7-0.94 1.46-1.87 2.22-2.78 0-0.01-0.01-0.02 0-0.03 0.75-0.92 1.54-1.81 2.34-2.69s1.6-1.72 2.44-2.56c0.84-0.85 1.71-1.66 2.59-2.47 0.88-0.8 1.77-1.59 2.69-2.34 3.67-3.03 7.63-5.72 11.84-8 2.11-1.15 4.28-2.19 6.5-3.13s4.49-1.77 6.81-2.5c1.17-0.36 2.35-0.69 3.54-1 4.74-1.22 9.68-1.99 14.75-2.25 1.26-0.06 2.53-0.09 3.81-0.09z" fill="#a9a9a9" opacity=".79394"/>
   <path d="m435.87 303.13c-82.17 0-148.85 66.7-148.85 148.87s66.68 148.84 148.85 148.84 148.87-66.67 148.87-148.84-66.7-148.87-148.87-148.87zm0.03 74.56c41 0 74.28 33.31 74.28 74.31 0 41.01-33.28 74.28-74.28 74.28-41.01 0-74.28-33.3-74.28-74.31s33.27-74.28 74.28-74.28z" fill="url(#radialGradient2340)" opacity=".79394"/>
   <path transform="matrix(.83697 0 0 .8358 110.41 131.57)" d="m388.88 274.48c-60.1 0-108.88 48.77-108.88 108.86s48.78 108.89 108.88 108.89c60.09 0 108.87-48.76 108.87-108.85v-0.04c0-60.09-48.78-108.86-108.87-108.86zm0 24.66c46.57 0 84.37 37.74 84.37 84.24s-37.8 84.2-84.37 84.2c-46.58 0-84.38-37.74-84.38-84.24s37.8-84.2 84.38-84.2z" fill="#696969" filter="url(#filter3340)" opacity=".58788"/>
   <path d="m435.88 362.97c-49.06 0-88.87 39.87-88.87 89s39.81 89.03 88.87 89.03 88.88-39.87 88.88-89v-0.03c0-49.13-39.82-89-88.88-89zm0 20.16c38.02 0 68.88 30.85 68.88 68.87s-30.86 68.84-68.88 68.84-68.87-30.85-68.87-68.87 30.85-68.84 68.87-68.84z" fill="#c0c0c0"/>
  </g>
 </g>
 <metadata>
  <rdf:RDF>
   <cc:Work>
    <dc:format>image/svg+xml</dc:format>
    <dc:type rdf:resource="http://purl.org/dc/dcmitype/StillImage"/>
    <cc:license rdf:resource="http://creativecommons.org/publicdomain/zero/1.0/"/>
    <dc:publisher>
     <cc:Agent rdf:about="http://openclipart.org/">
      <dc:title>Openclipart</dc:title>
     </cc:Agent>
    </dc:publisher>
    <dc:date>2008-01-30T19:49:13</dc:date>
    <dc:description>rodas dentadas, engrenagens</dc:description>
    <dc:source>https://openclipart.org/detail/12273/gears-by-felipecaparelli-12273</dc:source>
    <dc:creator>
     <cc:Agent>
      <dc:title>felipecaparelli</dc:title>
     </cc:Agent>
    </dc:creator>
    <dc:subject>
     <rdf:Bag>
      <rdf:li>gear</rdf:li>
      <rdf:li>gears</rdf:li>
      <rdf:li>mechanical</rdf:li>
     </rdf:Bag>
    </dc:subject>
   </cc:Work>
   <cc:License rdf:about="http://creativecommons.org/publicdomain/zero/1.0/">
    <cc:permits rdf:resource="http://creativecommons.org/ns#Reproduction"/>
    <cc:permits rdf:resource="http://creativecommons.org/ns#Distribution"/>
    <cc:permits rdf:resource="http://creativecommons.org/ns#DerivativeWorks"/>
   </cc:License>
  </rdf:RDF>
 </metadata>
</svg>
