<svg width="80.17" height="80.17" version="1.1" viewBox="0 0 80.17 80.17" xmlns="http://www.w3.org/2000/svg">
<defs>
<style>.cls-1{fill:#0a66c2;}</style>
</defs>
<path class="cls-1" d="m68.32 68.315h-11.88v-18.6c0-4.44-0.08-10.15-6.18-10.15s-7.14 4.83-7.14 9.83v18.92h-11.88v-38.25h11.41v5.23h0.16c1.59-3.01 5.47-6.18 11.25-6.18 12.04 0 14.27 7.92 14.27 18.22v20.98zm-50.48-43.49c-3.81 0-6.89-3.09-6.89-6.9s3.08-6.89 6.89-6.89 6.89 3.09 6.89 6.89-3.09 6.9-6.89 6.9m5.94 43.49h-11.89v-38.26h11.89zm50.46-68.31h-68.32c-3.27 0-5.92 2.59-5.92 5.78v68.6c0 3.19 2.65 5.78 5.92 5.78h68.32c3.27 0 5.93-2.59 5.93-5.78v-68.6c0-3.19-2.66-5.78-5.93-5.78"/>
</svg>
