<svg xmlns="http://www.w3.org/2000/svg" viewBox="0 0 366.81 127.09"><path fill="rgb(16, 24, 32)" d="M138 127.09a50.79 50.79 0 0 1-19.75-3.65 43 43 0 0 1-14.94-10.19 47 47 0 0 1-9.54-14.86 48.21 48.21 0 0 1 2.41-40.51 43.6 43.6 0 0 1 16.4-16.73q10.65-6.28 25.25-6.29t25.07 6.36a44.36 44.36 0 0 1 7 5.26 9 9 0 0 1-3.53 15.1l-3.51 1.07a10.47 10.47 0 0 1-10.37-2.41 19.48 19.48 0 0 0-4.23-3.13 21.52 21.52 0 0 0-10.64-2.67 22.56 22.56 0 0 0-11.94 3.29 22.79 22.79 0 0 0-8.5 9.27 29.85 29.85 0 0 0-3.09 13.9 28.79 28.79 0 0 0 3.17 13.73 24.89 24.89 0 0 0 8.5 9.43 21.35 21.35 0 0 0 11.86 3.46 22.14 22.14 0 0 0 7.81-1.38 22.61 22.61 0 0 0 6.61-3.78c.4-.32.77-.66 1.12-1a10.1 10.1 0 0 1 10-2.4l3.12 1a9.31 9.31 0 0 1 3.72 15.69l-.12.11a43.46 43.46 0 0 1-13.88 8.33 50.78 50.78 0 0 1-18 3ZM47.57 127.09a50.82 50.82 0 0 1-19.75-3.65 43 43 0 0 1-14.94-10.19 47.8 47.8 0 0 1-7.13-55.37 43.63 43.63 0 0 1 16.41-16.73q10.64-6.28 25.24-6.29t25.08 6.36a44.36 44.36 0 0 1 7 5.26A9 9 0 0 1 76 61.58l-3.5 1.07a10.49 10.49 0 0 1-10.4-2.41 19.42 19.42 0 0 0-4.22-3.13 21.59 21.59 0 0 0-10.65-2.67 22.59 22.59 0 0 0-11.94 3.29 22.86 22.86 0 0 0-8.5 9.27 29.85 29.85 0 0 0-3.09 13.9 28.8 28.8 0 0 0 3.18 13.73 24.89 24.89 0 0 0 8.5 9.43 21.34 21.34 0 0 0 11.85 3.46 22.19 22.19 0 0 0 7.82-1.38 22.61 22.61 0 0 0 6.61-3.78c.39-.32.76-.66 1.12-1a10.08 10.08 0 0 1 10-2.4l3.12 1a9.3 9.3 0 0 1 3.64 15.74l-.12.11a43.35 43.35 0 0 1-13.91 8.33 50.74 50.74 0 0 1-17.94 2.95ZM227.72 127.09a50.84 50.84 0 0 1-19.72-3.65 42.76 42.76 0 0 1-14.85-10.1 45.4 45.4 0 0 1-9.36-14.78 47.41 47.41 0 0 1-3.27-17.49 47.89 47.89 0 0 1 3.27-17.67 45.4 45.4 0 0 1 9.36-14.78A42.76 42.76 0 0 1 208 38.52a50.84 50.84 0 0 1 19.76-3.66 50.15 50.15 0 0 1 19.66 3.66A43.62 43.62 0 0 1 271.6 63.4a49.09 49.09 0 0 1 3.18 17.67 48.6 48.6 0 0 1-3.18 17.49 44.37 44.37 0 0 1-9.28 14.78 42.67 42.67 0 0 1-14.85 10.1 50.82 50.82 0 0 1-19.75 3.65Zm-23.53-46a29.53 29.53 0 0 0 3.09 13.74 23.7 23.7 0 0 0 8.41 9.35 22.08 22.08 0 0 0 12 3.37 21.34 21.34 0 0 0 11.85-3.46 25 25 0 0 0 8.5-9.43 28.8 28.8 0 0 0 3.18-13.73 28.93 28.93 0 0 0-3.18-13.65 24.18 24.18 0 0 0-8.5-9.43 22.55 22.55 0 0 0-23.88.08 24.27 24.27 0 0 0-8.41 9.43 29.51 29.51 0 0 0-3.06 13.7ZM294.62 0a18.06 18.06 0 0 1 18.06 18.06v78.77q0 6.21 2.06 8.36a7.48 7.48 0 0 0 5.67 2.15 24.64 24.64 0 0 0 5.67-.68h.06a5 5 0 0 1 6.1 4l1.39 7.87a5 5 0 0 1-3.3 5.56 49.5 49.5 0 0 1-6.83 1.8 59.09 59.09 0 0 1-11.16 1.2q-10.83 0-16.75-5.76t-5.92-16.45V5a5 5 0 0 1 4.95-5ZM343.79 11.42A11.42 11.42 0 0 1 355.21 0h.18a11.42 11.42 0 0 1 11.42 11.42 11.42 11.42 0 0 1-11.42 11.42h-.18a11.42 11.42 0 0 1-11.42-11.42Zm0 109V40.33a5 5 0 0 1 5-4.95 18.07 18.07 0 0 1 18.06 18.06v67a5 5 0 0 1-5 5h-13.1a5 5 0 0 1-4.96-5.02Z"></path></svg>
