<svg xmlns="http://www.w3.org/2000/svg" viewBox="0 0 156.62 156.96"><path d="M156.62 78.65c0-12.01-8.81-22.1-20.27-24.12 6.68-9.55 5.74-22.49-2.84-31.08-8.27-8.57-21.41-9.52-31.02-2.88C100.6 8.95 90.44-.01 78.32-.01S56.22 8.8 54.2 20.26c-9.55-6.68-22.49-5.74-31.08 2.84-8.71 8.71-9.56 22.19-2.31 31.33C9.08 56.24 0 66.45 0 78.65s8.83 21.91 20.32 24.05c-6.73 9.56-5.81 22.54 2.79 31.15 8.6 8.3 21.58 9.18 31.14 3.19 2.16 11.3 12.16 19.93 24.05 19.93s22.2-9.17 24.15-20.78c9.39 6.86 22.74 5.98 31.39-2.67 8.51-8.51 9.51-21.3 3.03-30.83 11.21-2.23 19.74-12.19 19.74-24.02Z" style="fill: rgb(117, 50, 168);"></path><path class="logo_svg__cls-1" fill="white" d="M61.33 72.59c.2-2.08 2.06-3.61 4.15-3.61h3.12c1.67 0 2.7-1.88 1.75-3.25-2.01-2.91-5.38-4.8-9.2-4.74-6.07.09-10.84 5.29-10.84 11.36v12.27c0 6.06 4.74 11.25 10.79 11.36s11.21-4.85 11.21-11v-3.96c0-2.23-1.81-4.04-4.04-4.04h-2.96c-2.34 0-4.21-2.01-3.98-4.39ZM95.33 72.59c.2-2.08 2.06-3.61 4.15-3.61h3.12c1.67 0 2.7-1.88 1.75-3.25-2.01-2.91-5.38-4.8-9.2-4.74-6.07.09-10.84 5.29-10.84 11.36v12.27c0 6.06 4.74 11.25 10.79 11.36s11.21-4.85 11.21-11v-3.96c0-2.23-1.81-4.04-4.04-4.04h-2.96c-2.34 0-4.21-2.01-3.98-4.39Z"></path></svg>
