<svg width="148.1mm" height="41.534mm" version="1.1" viewBox="0 0 148.1 41.534" xmlns="http://www.w3.org/2000/svg">
 <g transform="translate(-84.28 -127.73)">
  <g transform="matrix(.26458 0 0 .26458 84.28 127.74)">
   <path d="m156.62 78.65c0-12.01-8.81-22.1-20.27-24.12 6.68-9.55 5.74-22.49-2.84-31.08-8.27-8.57-21.41-9.52-31.02-2.88-1.89-11.62-12.05-20.58-24.17-20.58s-22.1 8.81-24.12 20.27c-9.55-6.68-22.49-5.74-31.08 2.84-8.71 8.71-9.56 22.19-2.31 31.33-11.73 1.81-20.81 12.02-20.81 24.22s8.83 21.91 20.32 24.05c-6.73 9.56-5.81 22.54 2.79 31.15 8.6 8.3 21.58 9.18 31.14 3.19 2.16 11.3 12.16 19.93 24.05 19.93s22.2-9.17 24.15-20.78c9.39 6.86 22.74 5.98 31.39-2.67 8.51-8.51 9.51-21.3 3.03-30.83 11.21-2.23 19.74-12.19 19.74-24.02z" fill="#7532a8"/>
   <path class="logo_svg__cls-1" d="m61.33 72.59c0.2-2.08 2.06-3.61 4.15-3.61h3.12c1.67 0 2.7-1.88 1.75-3.25-2.01-2.91-5.38-4.8-9.2-4.74-6.07 0.09-10.84 5.29-10.84 11.36v12.27c0 6.06 4.74 11.25 10.79 11.36s11.21-4.85 11.21-11v-3.96c0-2.23-1.81-4.04-4.04-4.04h-2.96c-2.34 0-4.21-2.01-3.98-4.39zm34 0c0.2-2.08 2.06-3.61 4.15-3.61h3.12c1.67 0 2.7-1.88 1.75-3.25-2.01-2.91-5.38-4.8-9.2-4.74-6.07 0.09-10.84 5.29-10.84 11.36v12.27c0 6.06 4.74 11.25 10.79 11.36s11.21-4.85 11.21-11v-3.96c0-2.23-1.81-4.04-4.04-4.04h-2.96c-2.34 0-4.21-2.01-3.98-4.39z" fill="#fff"/>
  </g>
  <path d="m171.83 162.67a13.438 13.438 0 0 1-5.2255-0.96573 11.377 11.377 0 0 1-3.9529-2.6961 12.435 12.435 0 0 1-2.5241-3.9317 12.756 12.756 0 0 1 0.63765-10.718 11.536 11.536 0 0 1 4.3392-4.4265q2.8178-1.6616 6.6807-1.6642 3.8629-3e-3 6.6331 1.6828a11.737 11.737 0 0 1 1.8521 1.3917 2.3812 2.3812 0 0 1-0.93398 3.9952l-0.92869 0.28311a2.7702 2.7702 0 0 1-2.7437-0.63765 5.1541 5.1541 0 0 0-1.1192-0.82815 5.6938 5.6938 0 0 0-2.8152-0.70643 5.969 5.969 0 0 0-3.1591 0.87048 6.0299 6.0299 0 0 0-2.249 2.4527 7.8978 7.8978 0 0 0-0.81757 3.6777 7.6174 7.6174 0 0 0 0.83873 3.6327 6.5855 6.5855 0 0 0 2.249 2.495 5.6489 5.6489 0 0 0 3.138 0.91546 5.8579 5.8579 0 0 0 2.0664-0.36513 5.9822 5.9822 0 0 0 1.7489-1.0001c0.10583-0.0847 0.20373-0.17463 0.29633-0.26458a2.6723 2.6723 0 0 1 2.6458-0.635l0.8255 0.26458a2.4633 2.4633 0 0 1 0.98425 4.1513l-0.0318 0.0291a11.499 11.499 0 0 1-3.6724 2.204 13.436 13.436 0 0 1-4.7625 0.79375zm-23.926 0a13.446 13.446 0 0 1-5.2255-0.96573 11.377 11.377 0 0 1-3.9529-2.6961 12.647 12.647 0 0 1-1.8865-14.65 11.544 11.544 0 0 1 4.3418-4.4265q2.8152-1.6616 6.6781-1.6642 3.8629-3e-3 6.6358 1.6828a11.737 11.737 0 0 1 1.8521 1.3917 2.3812 2.3812 0 0 1-0.92075 3.9952l-0.92604 0.28311a2.7755 2.7755 0 0 1-2.7517-0.63765 5.1382 5.1382 0 0 0-1.1166-0.82815 5.7124 5.7124 0 0 0-2.8178-0.70643 5.9769 5.9769 0 0 0-3.1591 0.87048 6.0484 6.0484 0 0 0-2.249 2.4527 7.8978 7.8978 0 0 0-0.81756 3.6777 7.62 7.62 0 0 0 0.84137 3.6327 6.5855 6.5855 0 0 0 2.249 2.495 5.6462 5.6462 0 0 0 3.1353 0.91546 5.8711 5.8711 0 0 0 2.069-0.36513 5.9822 5.9822 0 0 0 1.7489-1.0001c0.10319-0.0847 0.20108-0.17463 0.29633-0.26458a2.667 2.667 0 0 1 2.6458-0.635l0.8255 0.26458a2.4606 2.4606 0 0 1 0.96308 4.1645l-0.0318 0.0291a11.47 11.47 0 0 1-3.6804 2.204 13.425 13.425 0 0 1-4.7466 0.78052zm47.665 0a13.451 13.451 0 0 1-5.2176-0.96573 11.314 11.314 0 0 1-3.9291-2.6723 12.012 12.012 0 0 1-2.4765-3.9105 12.544 12.544 0 0 1-0.86519-4.6276 12.671 12.671 0 0 1 0.86519-4.6752 12.012 12.012 0 0 1 2.4765-3.9105 11.314 11.314 0 0 1 3.9291-2.6723 13.451 13.451 0 0 1 5.2282-0.96838 13.269 13.269 0 0 1 5.2017 0.96838 11.541 11.541 0 0 1 6.3976 6.5828 12.988 12.988 0 0 1 0.84138 4.6752 12.859 12.859 0 0 1-0.84138 4.6276 11.74 11.74 0 0 1-2.4553 3.9105 11.29 11.29 0 0 1-3.9291 2.6723 13.446 13.446 0 0 1-5.2255 0.96573zm-6.2256-12.171a7.8131 7.8131 0 0 0 0.81756 3.6354 6.2706 6.2706 0 0 0 2.2252 2.4738 5.842 5.842 0 0 0 3.175 0.89165 5.6462 5.6462 0 0 0 3.1353-0.91546 6.6146 6.6146 0 0 0 2.249-2.495 7.62 7.62 0 0 0 0.84138-3.6327 7.6544 7.6544 0 0 0-0.84138-3.6116 6.3976 6.3976 0 0 0-2.249-2.495 5.9664 5.9664 0 0 0-6.3182 0.0212 6.4214 6.4214 0 0 0-2.2251 2.495 7.8079 7.8079 0 0 0-0.80963 3.6248zm23.926-21.455a4.7784 4.7784 0 0 1 4.7784 4.7784v20.841q0 1.6431 0.54504 2.2119a1.9791 1.9791 0 0 0 1.5002 0.56885 6.5193 6.5193 0 0 0 1.5002-0.17991h0.0159a1.3229 1.3229 0 0 1 1.614 1.0583l0.36777 2.0823a1.3229 1.3229 0 0 1-0.87312 1.4711 13.097 13.097 0 0 1-1.8071 0.47625 15.634 15.634 0 0 1-2.9528 0.3175q-2.8654 0-4.4318-1.524-1.5663-1.524-1.5663-4.3524v-26.427a1.3229 1.3229 0 0 1 1.3097-1.3229zm13.01 3.0215a3.0215 3.0215 0 0 1 3.0215-3.0215h0.0476a3.0215 3.0215 0 0 1 3.0215 3.0215 3.0215 3.0215 0 0 1-3.0215 3.0215h-0.0476a3.0215 3.0215 0 0 1-3.0215-3.0215zm0 28.84v-21.19a1.3229 1.3229 0 0 1 1.3229-1.3097 4.781 4.781 0 0 1 4.7784 4.7784v17.727a1.3229 1.3229 0 0 1-1.3229 1.3229h-3.466a1.3229 1.3229 0 0 1-1.3123-1.3282z" fill="#101820" stroke-width=".26458"/>
 </g>
</svg>
