<svg width="48.855" height="48.855" version="1.1" viewBox="0 0 22.901 22.901" xmlns="http://www.w3.org/2000/svg">
 <circle cx="11.45" cy="11.45" r="10.607" fill="#fff" stroke="#666" stroke-dashoffset="251.44" stroke-linecap="round" stroke-linejoin="round" stroke-width="1.6875" style="paint-order:normal"/>
 <path d="m7.5904 6.2204 3.86 3.86 3.84-3.84a0.92 0.92 0 0 1 0.66-0.29 1 1 0 0 1 1 1 0.9 0.9 0 0 1-0.27 0.66l-3.89 3.84 3.89 3.89a0.9 0.9 0 0 1 0.27 0.61 1 1 0 0 1-1 1 0.92 0.92 0 0 1-0.69-0.27l-3.81-3.86-3.85 3.85a0.92 0.92 0 0 1-0.65 0.28 1 1 0 0 1-1-1 0.9 0.9 0 0 1 0.27-0.66l3.89-3.84-3.89-3.89a0.9 0.9 0 0 1-0.27-0.61 1 1 0 0 1 1-1c0.24 3e-3 0.47 0.1 0.64 0.27z" fill="#666" stroke="#666" stroke-width=".11719"/>
</svg>
