<svg width="256px" height="256px" preserveAspectRatio="xMidYMid" version="1.1" viewBox="0 0 256 256" xmlns="http://www.w3.org/2000/svg">
<path d="m204.56 123.37-0.24381 29.257c-0.009582 2.9992-2.3679 5.4648-5.3638 5.6076-2.9958-0.14281-5.3542-2.6084-5.3638-5.6076l0.24381-29.257c0-16.697-13.535-30.232-30.232-30.232-15.116 0-28.526 13.166-29.745 29.501v1.219l-0.48762 11.215v0.73143c-0.13066 14.634-8.0583 28.086-20.797 35.289-12.738 7.2036-28.352 7.0642-40.96-0.36571s-20.294-21.022-20.163-35.655c0.066783 0.007944 0.13352-0.015177 0.18108-0.062733s0.070676-0.11429 0.062733-0.18108h-0.24381v-28.038c0.025624-1.3838 0.60006-2.7008 1.5969-3.661s2.3343-1.4851 3.7182-1.4589c1.3839-0.039346 2.7267 0.47296 3.7328 1.4241 1.006 0.95115 1.5928 2.2632 1.631 3.6471l-0.24381 28.038c0 16.697 13.535 30.232 30.232 30.232 16.697 0 30.232-13.535 30.232-30.232v-0.97524l0.48762-10.24v-1.219c1.5116-22.138 19.31-39.692 40.521-39.692 22.683 0.08066 41.014 18.52 40.96 41.204 0.24381-0.73143 0.24381-0.73143 0.24381-0.48762zm-76.068-123.37c-70.692-0.26784-128.22 56.821-128.49 127.51-0.26818 70.692 56.82 128.22 127.51 128.49 70.692 0.26852 128.22-56.82 128.49-127.51v-0.48762c0.13456-70.539-56.925-127.84-127.46-128h-0.048762z" fill="#3AAFA9"/>
<circle cx="128" cy="128" r="81.554" fill="#fff" stroke-width="2.1354"/>
</svg>
