<?xml version="1.0" encoding="UTF-8" standalone="no"?>
<!-- Created with Inkscape (http://www.inkscape.org/) -->

<svg
   xmlns:dc="http://purl.org/dc/elements/1.1/"
   xmlns:cc="http://creativecommons.org/ns#"
   xmlns:rdf="http://www.w3.org/1999/02/22-rdf-syntax-ns#"
   xmlns:svg="http://www.w3.org/2000/svg"
   xmlns="http://www.w3.org/2000/svg"
   xmlns:sodipodi="http://sodipodi.sourceforge.net/DTD/sodipodi-0.dtd"
   xmlns:inkscape="http://www.inkscape.org/namespaces/inkscape"
   width="210mm"
   height="297mm"
   viewBox="0 0 210 297"
   version="1.1"
   id="svg8"
   inkscape:version="0.92.4 (5da689c313, 2019-01-14)"
   sodipodi:docname="label.draft.svg">
  <defs
     id="defs2" />
  <sodipodi:namedview
     id="base"
     pagecolor="#ffffff"
     bordercolor="#666666"
     borderopacity="1.0"
     inkscape:pageopacity="0.0"
     inkscape:pageshadow="2"
     inkscape:zoom="0.9899495"
     inkscape:cx="461.6406"
     inkscape:cy="96.846632"
     inkscape:document-units="mm"
     inkscape:current-layer="layer1"
     showgrid="false"
     inkscape:window-width="1366"
     inkscape:window-height="736"
     inkscape:window-x="0"
     inkscape:window-y="16"
     inkscape:window-maximized="1" />
  <metadata
     id="metadata5">
    <rdf:RDF>
      <cc:Work
         rdf:about="">
        <dc:format>image/svg+xml</dc:format>
        <dc:type
           rdf:resource="http://purl.org/dc/dcmitype/StillImage" />
        <dc:title></dc:title>
      </cc:Work>
    </rdf:RDF>
  </metadata>
  <g
     inkscape:label="Layer 1"
     inkscape:groupmode="layer"
     id="layer1">
    <path
       style="fill:none;stroke:#000000;stroke-width:0.26458332px;stroke-linecap:butt;stroke-linejoin:miter;stroke-opacity:1"
       d="m 51.40476,117.83928 13.530744,-23.435929 0.01098,0.0063 v 0"
       id="path815"
       inkscape:connector-curvature="0" />
    <path
       style="fill:none;stroke:#000000;stroke-width:0.26458332px;stroke-linecap:butt;stroke-linejoin:miter;stroke-opacity:1"
       d="M 78.309972,119.26576 90.337099,96.280583 h 32.339611"
       id="path817"
       inkscape:connector-curvature="0"
       sodipodi:nodetypes="ccc" />
    <path
       style="fill:none;stroke:#000000;stroke-width:0.26458332px;stroke-linecap:butt;stroke-linejoin:miter;stroke-opacity:1"
       d="M 71.815475,146.56548 H 85.96596 c 0.676332,-0.0209 3.30147,-0.005 3.934153,-0.83721 0.426501,-0.36462 1.272256,-1.92024 1.602106,-2.49156 l 4.177131,-7.23501 c 0,0 0.679705,-1.34341 1.817605,-2.11076 0.472523,-0.30451 3.063205,-0.4009 3.063205,-0.4009 h 13.21067"
       id="path819"
       inkscape:connector-curvature="0"
       sodipodi:nodetypes="cccccccc" />
    <path
       sodipodi:nodetypes="cccccccc"
       inkscape:connector-curvature="0"
       id="path859"
       d="m 145.52085,146.56548 h -14.15049 c -0.67633,-0.0209 -3.30147,-0.005 -3.93415,-0.83721 -0.4265,-0.36462 -1.27226,-1.92024 -1.60211,-2.49156 l -4.17713,-7.23501 c 0,0 -0.67971,-1.34341 -1.81761,-2.11076 -0.47252,-0.30451 -3.0632,-0.4009 -3.0632,-0.4009 h -13.21068"
       style="fill:none;stroke:#000000;stroke-width:0.26458332px;stroke-linecap:butt;stroke-linejoin:miter;stroke-opacity:1" />
    <path
       sodipodi:nodetypes="ccccccccc"
       inkscape:connector-curvature="0"
       id="path967"
       d="m 118.49554,172.57638 -47.05804,0 h 10.748698 c 0.676332,-0.0209 3.30147,-0.005 3.934153,-0.83721 0.426501,-0.36462 1.272256,-1.92024 1.602106,-2.49156 l 4.177131,-7.23501 c 0,0 0.679705,-1.34341 1.817605,-2.11076 0.472523,-0.30451 3.063205,-0.4009 3.063205,-0.4009 l 22.282102,0"
       style="fill:none;stroke:#000000;stroke-width:0.26458332px;stroke-linecap:butt;stroke-linejoin:miter;stroke-opacity:1" />
    <path
       style="fill:#f0f0f0;stroke:none;stroke-width:0.99999994px;stroke-linecap:butt;stroke-linejoin:miter;stroke-opacity:1;fill-opacity:1"
       d="M 365.78516 702.83789 C 365.78516 702.83789 355.99294 703.20261 354.20703 704.35352 C 349.90631 707.25374 347.33789 712.33203 347.33789 712.33203 L 331.54883 739.67578 C 330.30215 741.8351 327.10611 747.71566 325.49414 749.09375 C 323.1029 752.23911 313.18122 752.17882 310.625 752.25781 L 392.14258 752.25781 L 447.85742 752.25781 L 529.375 752.25781 C 526.81879 752.17882 516.89709 752.23911 514.50586 749.09375 C 512.89389 747.71566 509.69785 741.8351 508.45117 739.67578 L 492.66211 712.33203 C 492.66211 712.33203 490.09369 707.25374 485.79297 704.35352 C 484.00707 703.20261 474.2168 702.83789 474.2168 702.83789 L 450 702.83789 L 390 702.83789 L 365.78516 702.83789 z "
       transform="scale(0.26458333)"
       id="path977" />
    <path
       id="path982"
       d="m 96.780656,212.41754 c 0,0 -2.590858,0.0965 -3.06338,0.40101 -1.137899,0.76735 -1.81746,2.11098 -1.81746,2.11098 l -4.177523,7.2347 c -0.32985,0.57132 -1.175469,2.12722 -1.60197,2.49184 -0.632682,0.83221 -3.257793,0.81625 -3.934126,0.83715 h 21.568193 30.61622 21.56819 c -0.67633,-0.0209 -3.30145,-0.005 -3.93413,-0.83715 -0.4265,-0.36462 -1.27212,-1.92052 -1.60197,-2.49184 l -4.17752,-7.2347 c 0,0 -0.67956,-1.34363 -1.81746,-2.11098 -0.47252,-0.30452 -3.06286,-0.40101 -3.06286,-0.40101 h -6.40736 -31.75 z"
       style="fill:#f0f0f0;fill-opacity:1;stroke:none;stroke-width:0.26458332px;stroke-linecap:butt;stroke-linejoin:miter;stroke-opacity:1"
       inkscape:connector-curvature="0"
       sodipodi:nodetypes="ccccccccccccccccc" />
    <path
       sodipodi:nodetypes="ccccccccccccccccc"
       inkscape:connector-curvature="0"
       style="fill:#f0f0f0;fill-opacity:1;stroke:none;stroke-width:0.26458332px;stroke-linecap:butt;stroke-linejoin:miter;stroke-opacity:1"
       d="m 96.780656,244.16756 c 0,0 -2.590858,0.0965 -3.06338,0.40101 -1.137899,0.76735 -1.81746,2.11098 -1.81746,2.11098 l -4.177523,7.2347 c -0.32985,0.57132 -1.175469,2.12722 -1.60197,2.49184 -0.632682,0.83221 -3.257793,0.81625 -3.934126,0.83715 h 21.568193 25.32455 21.56819 c -0.67633,-0.0209 -3.30145,-0.005 -3.93413,-0.83715 -0.4265,-0.36462 -1.27212,-1.92052 -1.60197,-2.49184 l -4.17752,-7.2347 c 0,0 -0.67956,-1.34363 -1.81746,-2.11098 -0.47252,-0.30452 -3.06286,-0.40101 -3.06286,-0.40101 h -6.40736 -26.45833 z"
       id="path984" />
    <path
       id="path878"
       d="m 103.72033,265.33423 c 0,0 -2.25707,0.0965 -2.66872,0.40101 -0.9913,0.76735 -1.583315,2.11098 -1.583315,2.11098 l -3.639329,7.2347 c -0.287355,0.57132 -1.024032,2.12722 -1.395586,2.49184 -0.551173,0.83221 -2.838088,0.81625 -3.427289,0.83715 h 18.789539 22.06196 18.78954 c -0.5892,-0.0209 -2.87612,-0.005 -3.42729,-0.83715 -0.37156,-0.36462 -1.10823,-1.92052 -1.39559,-2.49184 l -3.63932,-7.2347 c 0,0 -0.59202,-1.34363 -1.58332,-2.11098 -0.41164,-0.30452 -2.66827,-0.40101 -2.66827,-0.40101 h -5.58189 -23.04968 z"
       style="fill:#f0f0f0;fill-opacity:1;stroke:none;stroke-width:0.24695262px;stroke-linecap:butt;stroke-linejoin:miter;stroke-opacity:1"
       inkscape:connector-curvature="0"
       sodipodi:nodetypes="ccccccccccccccccc" />
  </g>
</svg>
